<?xml version="1.0" standalone="no"?>
<!DOCTYPE svg PUBLIC "-//W3C//DTD SVG 20010904//EN"
 "http://www.w3.org/TR/2001/REC-SVG-20010904/DTD/svg10.dtd">
<svg version="1.0" xmlns="http://www.w3.org/2000/svg"
 width="1900.000000pt" height="1900.000000pt" viewBox="0 0 1900.000000 1900.000000"
 preserveAspectRatio="xMidYMid meet">
<metadata>
Created by potrace 1.14, written by Peter Selinger 2001-2017
</metadata>
<g transform="translate(0.000000,1900.000000) scale(0.100000,-0.100000)"
fill="#000000" stroke="none">
<path d="M0 16530 l0 -1420 948 -1 c992 -1 980 -1 1091 -18 86 -13 107 -21
151 -58 78 -64 189 -164 255 -229 l70 -69 -1 -4830 c0 -2656 -4 -4868 -8
-4914 -39 -450 -375 -845 -856 -1006 -30 -11 -59 -20 -65 -21 -5 -1 -37 -9
-70 -17 -72 -19 -93 -23 -215 -41 -134 -20 -251 -27 -730 -41 -118 -4 -240 -8
-270 -10 -30 -2 -104 -5 -165 -6 -60 -1 -115 -3 -122 -6 -11 -4 -13 -273 -13
-1403 l0 -1398 4125 0 4125 -1 0 1414 0 1413 -257 2 c-560 5 -1025 15 -1098
25 -16 2 -59 7 -95 10 -196 18 -489 82 -630 137 -150 59 -308 154 -365 220
-177 204 -252 421 -281 813 -4 57 -8 5881 -4 6209 l0 39 22 -29 c12 -16 25
-31 28 -34 4 -4 255 -305 317 -380 38 -46 400 -481 424 -509 16 -19 44 -53 62
-75 17 -22 72 -87 120 -145 190 -227 273 -326 317 -381 19 -24 40 -48 45 -54
6 -6 36 -43 68 -81 32 -39 76 -90 96 -115 21 -25 120 -144 221 -265 100 -121
199 -240 220 -265 52 -62 402 -483 448 -539 20 -25 51 -61 68 -80 17 -20 113
-135 213 -256 101 -121 190 -229 200 -240 96 -115 372 -447 391 -471 14 -18
171 -207 350 -420 319 -383 737 -884 815 -979 22 -27 80 -96 128 -154 49 -58
96 -115 106 -126 9 -11 83 -100 164 -198 81 -97 155 -187 165 -198 9 -12 22
-26 27 -33 6 -6 64 -76 130 -156 66 -80 122 -147 125 -150 3 -3 50 -59 104
-125 55 -66 120 -145 146 -175 26 -30 161 -192 300 -360 139 -168 300 -361
358 -430 57 -69 111 -134 121 -145 69 -84 187 -224 204 -245 12 -14 66 -79
121 -145 54 -66 115 -140 136 -165 21 -25 101 -121 179 -215 78 -93 150 -179
159 -190 9 -11 71 -85 137 -165 66 -80 129 -156 142 -170 12 -14 94 -113 183
-220 202 -244 187 -225 240 -290 25 -30 47 -57 50 -60 3 -3 43 -50 89 -105
114 -138 111 -133 161 -195 25 -30 47 -57 50 -60 5 -4 86 -102 193 -230 11
-14 32 -39 46 -56 14 -17 44 -52 66 -79 22 -27 55 -66 73 -87 l33 -37 1277 2
1277 2 1 6410 c1 3526 4 6460 8 6522 15 283 104 543 271 794 71 105 148 187
211 225 75 44 268 84 479 99 50 4 110 8 135 10 25 2 318 4 652 4 l607 1 -2
1418 -2 1417 -3872 3 -3873 2 0 -1410 0 -1410 23 -1 c56 -2 294 -7 652 -13
498 -8 579 -13 760 -42 476 -77 699 -246 824 -622 31 -93 65 -246 76 -347 4
-33 10 -71 13 -85 6 -24 15 -5173 10 -5644 l-3 -239 -84 104 c-47 57 -88 106
-91 109 -4 3 -121 142 -261 310 -139 168 -256 307 -259 310 -3 3 -86 102 -185
220 -99 118 -227 271 -285 340 -58 69 -123 148 -145 174 -22 27 -45 54 -50 60
-6 6 -127 151 -270 321 -142 171 -327 391 -410 490 -83 99 -232 277 -330 395
-99 118 -182 217 -185 220 -3 3 -61 73 -130 155 -69 83 -127 152 -130 155 -3
3 -73 86 -155 185 -82 99 -152 182 -155 185 -3 3 -61 73 -130 155 -68 83 -127
152 -130 155 -3 3 -15 17 -26 32 -12 15 -41 51 -66 80 -41 48 -180 213 -423
503 -46 55 -161 192 -255 305 -95 113 -187 223 -205 245 -27 32 -147 175 -244
290 -9 11 -120 144 -246 295 -127 151 -240 286 -252 300 -11 14 -155 185 -318
380 -163 195 -316 377 -339 404 -22 27 -70 84 -105 125 -34 42 -73 87 -84 101
-33 39 -170 203 -187 224 -8 10 -22 26 -30 35 -8 10 -44 53 -80 96 -35 44 -67
82 -70 85 -3 3 -79 93 -169 200 -90 107 -172 206 -184 220 -12 14 -125 149
-251 300 -127 151 -298 356 -380 454 -83 98 -247 294 -365 435 -117 141 -223
267 -235 281 -12 14 -88 105 -170 203 l-149 177 -2694 0 -2693 0 0 -1420z"/>
</g>
</svg>
